# xmcd CD database file
#
# Track frame offsets:
#	150
#	20583
#	36576
#	56409
#	73134
#	90045
#	106945
#	121736
#	141148
#	158803
#	175884
#	193236
#	207213
#	225771
#	238686
#	253185
#	267813
#	280026
#	297891
#	314492
#
# Disc length: 4418 seconds
#
# Revision: 0
# Processed by: cddbd v1.5.2PL0 Copyright (c) Steve Scherf et al.
# Submitted via: CDex 1.97
#
DISCID=19114014
DTITLE=Various Artist - Now 100 Hits Country - Disc 4 of 5
DYEAR=2020
DGENRE=Country
TTITLE0=Sheryl Crow - All I Wanna Do
TTITLE1=Shania Twain - You're Still The One
TTITLE2=LeAnn Rimes - How Do I Live
TTITLE3=Rascal Flatts - Bless The Broken Road
TTITLE4=Luke Bryan - Play It Again
TTITLE5=Luke Combs - Even Though I'm Leaving
TTITLE6=Maren Morris - My Church
TTITLE7=Brad Paisley and Alison Krauss - Whiskey Lullaby
TTITLE8=Miranda Lambert - The House That Built Me
TTITLE9=Ward Thomas - Cartwheels
TTITLE10=Cam - Burning House
TTITLE11=Patty Griffin feat. Regina McCrary and Mike Farris - Wade In The Water
TTITLE12=Shelby Lynne - Willie And Lauramae Jones
TTITLE13=Dr. Hook - Sharing The Night Together
TTITLE14=Whiskeytown - Excuse Me While I Break My Own Heart Tonight
TTITLE15=Rosanne Cash - Seven Year Ache
TTITLE16=Jace Everett - Bad Things
TTITLE17=Steve Earle - Copperhead Road
TTITLE18=Gretchen Wilson - Redneck Woman
TTITLE19=Luke Bryan - Country Girl (Shake It For Me)
EXTD=YEAR: 2020
EXTT0=
EXTT1=
EXTT2=
EXTT3=
EXTT4=
EXTT5=
EXTT6=
EXTT7=
EXTT8=
EXTT9=
EXTT10=
EXTT11=
EXTT12=
EXTT13=
EXTT14=
EXTT15=
EXTT16=
EXTT17=
EXTT18=
EXTT19=
PLAYORDER=
